<svg xmlns="http://www.w3.org/2000/svg" fill="none" viewBox="0 0 317 24" height="24" width="317">
<g clip-path="url(#clip0_3457_108254)">
<path fill="black" d="M305.635 22.0397C300.085 22.0397 295.569 17.5345 295.569 11.9973C295.569 6.46011 300.085 1.95489 305.635 1.95489C309.754 1.95489 313.3 4.43682 314.857 7.97698H316.968C315.309 3.33082 310.855 -0.00390625 305.635 -0.00390625C299.003 -0.00390625 293.605 5.38039 293.605 11.9973C293.605 18.6142 299.003 23.9961 305.635 23.9961C310.843 23.9961 315.285 20.6781 316.956 16.051H314.842C313.276 19.5745 309.742 22.0397 305.638 22.0397H305.635ZM305.635 17.8628C302.395 17.8628 299.759 15.2327 299.759 12.0031C299.759 8.77349 302.395 6.14345 305.635 6.14345C308.875 6.14345 311.509 8.77349 311.509 12.0031C311.509 15.2327 308.872 17.8628 305.635 17.8628ZM305.635 4.21094C301.327 4.21094 297.824 7.70571 297.824 12.0031C297.824 16.3005 301.327 19.7953 305.635 19.7953C309.943 19.7953 313.446 16.3005 313.446 12.0031C313.446 7.70571 309.943 4.21094 305.635 4.21094ZM262.342 21.347H251.392V4.04995H261.923V6.04218H253.538V11.479H261.332V13.4235H253.538V19.3787H262.342V21.347ZM226.236 21.347H224.114V4.05234H226.408L233.709 17.6086V4.05234H235.855V21.347H233.537L226.236 7.81465V21.347ZM198.539 12.6877C198.539 17.0664 199.921 19.749 203.225 19.749C206.556 19.749 207.911 17.0425 207.911 12.6877C207.911 8.33302 206.529 5.6767 203.225 5.6767C199.921 5.6767 198.539 8.30913 198.539 12.6877ZM210.009 12.6877C210.009 18.2727 207.739 21.7173 203.225 21.7173C198.687 21.7173 196.393 18.299 196.393 12.6877C196.393 7.07652 198.711 3.68208 203.225 3.68208C207.739 3.68208 210.009 7.1028 210.009 12.6877ZM164.923 21.347H153.973H153.97V4.04995H164.477V6.04218H156.068V11.479H163.862V13.4235H156.068V19.3787H164.923V21.347ZM130.1 11.9735H134.637V11.9759C136.584 11.9759 136.708 10.2297 136.708 9.04726C136.708 7.86482 136.586 6.04457 134.637 6.04457H130.1V11.9735ZM136.708 21.3972V15.688C136.708 15.0001 136.586 13.9657 134.637 13.9657H130.1V21.347H127.978V4.04995H134.982C138.31 4.04995 138.878 6.70865 138.878 9.04487C138.878 10.5689 138.658 11.9711 137.621 12.8574C138.655 13.5955 138.878 14.7039 138.878 15.688V21.3972H136.708ZM112.488 15.1482C112.488 20.585 109.677 21.7412 106.643 21.7412C103.586 21.7412 100.724 20.2172 100.724 15.1482V4.05234H102.87V14.7564C102.87 19.0132 104.67 19.7752 106.643 19.7752C108.616 19.7752 110.319 19.0132 110.319 14.7564V4.05234H112.488V15.1482ZM80.4045 21.347H80.4021L80.4045 21.3494V21.347ZM82.4997 21.347H80.4045V6.04457H75.5461V4.05234H87.3341V6.04457H82.4997V21.347ZM54.4818 11.9735H59.242V11.9759C60.8439 11.9759 61.0906 10.2297 61.0906 9.04726C61.0906 7.86482 60.8439 6.04457 59.242 6.04457H54.4818V11.9735ZM54.4818 21.347H52.3363V4.04995H59.5868C62.6206 4.04995 63.2121 6.70865 63.2121 9.04487C63.2121 11.8493 62.3979 13.9657 59.5868 13.9657H54.4818V21.347ZM31.7413 6.80659L28.9541 15.7143H34.4782L31.7413 6.80659ZM27.2277 21.347H25.0104L30.3118 4.04995H33.099L38.4267 21.347H36.231L35.0721 17.6062H28.3627L27.2277 21.347ZM12.9973 15.5662C12.7267 18.5187 11.199 21.7173 6.63512 21.7173C2.63872 21.7173 0 19.233 0 12.8359C0 6.04457 3.30439 3.68208 6.70935 3.67969C11.223 3.67969 12.8991 7.39662 12.9733 10.373H10.7297C10.7058 7.1243 8.83087 5.6982 6.68541 5.6982C3.9964 5.6982 2.19574 8.10847 2.19574 12.8335C2.19574 17.9263 3.94612 19.6988 6.70935 19.6988C9.6426 19.6988 10.4831 17.7567 10.7536 15.5662H12.9973Z" clip-rule="evenodd" fill-rule="evenodd"></path>
</g>
<defs>
<clipPath id="clip0_3457_108254">
<rect fill="white" height="24" width="316.965"></rect>
</clipPath>
</defs>
</svg>
